<svg xmlns="http://www.w3.org/2000/svg" viewBox="0 0 156.98 250.96"><defs><style>.cls-1{fill:#00004f;}.cls-2{font-size:224.09px;fill:#3e7eff;font-family:TrebuchetMS, Trebuchet MS;}</style></defs><g id="Vrstva_4" data-name="Vrstva 4"><path class="cls-1" d="M284.54,252.44l-58.46-159h24.14l41,117.36,26.44-61.22v50.76l-20.51,52.8Z" transform="translate(-226.08 -62.01)"/><path class="cls-1" d="M297.51,253.15l-2.08-1L237.08,93.45h24.14l41,117.36,26.44-61.22v50.76l-20.4,52.5-1,.3Z" transform="translate(-226.08 -62.01)"/><path class="cls-1" d="M303.71,211.15l2.67-7.64L344.61,94.09H368.7L325.35,212,308,253Z" transform="translate(-226.08 -62.01)"/><path class="cls-1" d="M284.62,252.67" transform="translate(-226.08 -62.01)"/><path class="cls-1" d="M297.11,253.27" transform="translate(-226.08 -62.01)"/></g><g id="Vrstva_5" data-name="Vrstva 5"><path class="cls-1" d="M294.68,211.15l5.43-15.53L335.58,94.09h24.09L321.35,198.31Z" transform="translate(-226.08 -62.01)"/><path class="cls-1" d="M303.71,211.15l2.67-7.64L344.61,94.09H368.7L325.35,212Z" transform="translate(-226.08 -62.01)"/></g><g id="mainD"><text class="cls-2" transform="translate(7.55 192.2)">D</text><text class="cls-2" transform="translate(19.55 192.2)">D</text></g></svg>
